<svg width="38" height="36" viewBox="0 0 38 36" fill="none" xmlns="http://www.w3.org/2000/svg">
<circle cx="19" cy="20.875" r="13.125" stroke="white" stroke-width="3"/>
<mask id="path-2-outside-1_201_492" maskUnits="userSpaceOnUse" x="0" y="19.2188" width="16" height="16" fill="black">
<rect fill="white" y="19.2188" width="16" height="16"/>
<path fill-rule="evenodd" clip-rule="evenodd" d="M7.75 30.7188C9.82107 30.7188 11.5 29.0398 11.5 26.9688C11.5 24.8977 9.82107 23.2188 7.75 23.2188C5.67893 23.2188 4 24.8977 4 26.9688C4 29.0398 5.67893 30.7188 7.75 30.7188Z"/>
</mask>
<path fill-rule="evenodd" clip-rule="evenodd" d="M7.75 30.7188C9.82107 30.7188 11.5 29.0398 11.5 26.9688C11.5 24.8977 9.82107 23.2188 7.75 23.2188C5.67893 23.2188 4 24.8977 4 26.9688C4 29.0398 5.67893 30.7188 7.75 30.7188Z" fill="white"/>
<path d="M7.5 26.9688C7.5 26.8307 7.61193 26.7188 7.75 26.7188V34.7188C12.0302 34.7188 15.5 31.249 15.5 26.9688H7.5ZM7.75 27.2188C7.61193 27.2188 7.5 27.1068 7.5 26.9688H15.5C15.5 22.6885 12.0302 19.2188 7.75 19.2188V27.2188ZM8 26.9688C8 27.1068 7.88807 27.2188 7.75 27.2188V19.2188C3.46979 19.2188 0 22.6885 0 26.9688H8ZM7.75 26.7188C7.88807 26.7188 8 26.8307 8 26.9688H0C0 31.249 3.46979 34.7188 7.75 34.7188V26.7188Z" fill="black" mask="url(#path-2-outside-1_201_492)"/>
<mask id="path-4-outside-2_201_492" maskUnits="userSpaceOnUse" x="11.25" y="0" width="16" height="16" fill="black">
<rect fill="white" x="11.25" width="16" height="16"/>
<path fill-rule="evenodd" clip-rule="evenodd" d="M19 11.5C21.0711 11.5 22.75 9.82107 22.75 7.75C22.75 5.67893 21.0711 4 19 4C16.9289 4 15.25 5.67893 15.25 7.75C15.25 9.82107 16.9289 11.5 19 11.5Z"/>
</mask>
<path fill-rule="evenodd" clip-rule="evenodd" d="M19 11.5C21.0711 11.5 22.75 9.82107 22.75 7.75C22.75 5.67893 21.0711 4 19 4C16.9289 4 15.25 5.67893 15.25 7.75C15.25 9.82107 16.9289 11.5 19 11.5Z" fill="white"/>
<path d="M18.75 7.75C18.75 7.61193 18.8619 7.5 19 7.5V15.5C23.2802 15.5 26.75 12.0302 26.75 7.75H18.75ZM19 8C18.8619 8 18.75 7.88807 18.75 7.75H26.75C26.75 3.46979 23.2802 0 19 0V8ZM19.25 7.75C19.25 7.88807 19.1381 8 19 8V0C14.7198 0 11.25 3.46979 11.25 7.75H19.25ZM19 7.5C19.1381 7.5 19.25 7.61193 19.25 7.75H11.25C11.25 12.0302 14.7198 15.5 19 15.5V7.5Z" fill="black" mask="url(#path-4-outside-2_201_492)"/>
<mask id="path-6-outside-3_201_492" maskUnits="userSpaceOnUse" x="22.5" y="19.2188" width="16" height="16" fill="black">
<rect fill="white" x="22.5" y="19.2188" width="16" height="16"/>
<path fill-rule="evenodd" clip-rule="evenodd" d="M30.25 30.7188C32.3211 30.7188 34 29.0398 34 26.9688C34 24.8977 32.3211 23.2188 30.25 23.2188C28.1789 23.2188 26.5 24.8977 26.5 26.9688C26.5 29.0398 28.1789 30.7188 30.25 30.7188Z"/>
</mask>
<path fill-rule="evenodd" clip-rule="evenodd" d="M30.25 30.7188C32.3211 30.7188 34 29.0398 34 26.9688C34 24.8977 32.3211 23.2188 30.25 23.2188C28.1789 23.2188 26.5 24.8977 26.5 26.9688C26.5 29.0398 28.1789 30.7188 30.25 30.7188Z" fill="white"/>
<path d="M30 26.9688C30 26.8307 30.1119 26.7188 30.25 26.7188V34.7188C34.5302 34.7188 38 31.249 38 26.9688H30ZM30.25 27.2188C30.1119 27.2188 30 27.1068 30 26.9688H38C38 22.6885 34.5302 19.2188 30.25 19.2188V27.2188ZM30.5 26.9688C30.5 27.1068 30.3881 27.2188 30.25 27.2188V19.2188C25.9698 19.2188 22.5 22.6885 22.5 26.9688H30.5ZM30.25 26.7188C30.3881 26.7188 30.5 26.8307 30.5 26.9688H22.5C22.5 31.249 25.9698 34.7188 30.25 34.7188V26.7188Z" fill="black" mask="url(#path-6-outside-3_201_492)"/>
</svg>
