<svg width="166" height="24" viewBox="0 0 166 24" fill="none" xmlns="http://www.w3.org/2000/svg">
<path d="M5.78673 18.7052V5.14639H0V1.38557H15.9198V5.14639H10.1331V18.7052H5.78673Z" fill="white"/>
<path d="M16.6268 18.7052V5.61649H20.7205V6.92783C21.1585 6.4 21.6723 6.00412 22.2619 5.74021C22.8515 5.45979 23.5085 5.31959 24.2329 5.31959C24.9573 5.33608 25.4711 5.4433 25.7744 5.64124V9.1299C25.5048 8.99794 25.2016 8.89897 24.8647 8.83299C24.5277 8.76701 24.1824 8.73402 23.8286 8.73402C23.1885 8.73402 22.5904 8.88247 22.0345 9.17938C21.4954 9.45979 21.0574 9.86392 20.7205 10.3918V18.7052H16.6268Z" fill="white"/>
<path d="M31.5579 18.9278C30.6146 18.9278 29.7722 18.7546 29.031 18.4082C28.3066 18.0619 27.7338 17.5835 27.3127 16.9732C26.9083 16.3629 26.7062 15.6619 26.7062 14.8701C26.7062 13.6165 27.1863 12.6515 28.1466 11.9753C29.1236 11.2825 30.4798 10.9361 32.215 10.9361C33.2594 10.9361 34.2702 11.0598 35.2473 11.3072V10.6639C35.2473 10.0041 35.0283 9.51753 34.5903 9.20412C34.1691 8.87423 33.5374 8.70928 32.6951 8.70928C32.1728 8.70928 31.5832 8.79175 30.9262 8.9567C30.286 9.12165 29.528 9.38557 28.6519 9.74845L27.1863 6.80412C28.2813 6.32577 29.3342 5.97113 30.345 5.74021C31.3726 5.49278 32.4003 5.36907 33.4279 5.36907C35.281 5.36907 36.7214 5.80619 37.749 6.68041C38.7766 7.53814 39.2904 8.75052 39.2904 10.3175V18.7052H35.2473V17.9134C34.7082 18.2763 34.1354 18.5402 33.529 18.7052C32.9394 18.8536 32.2823 18.9278 31.5579 18.9278ZM30.5977 14.7959C30.5977 15.2082 30.783 15.5299 31.1536 15.7608C31.5243 15.9918 32.0381 16.1072 32.6951 16.1072C33.1836 16.1072 33.6385 16.0577 34.0596 15.9588C34.4976 15.8598 34.8935 15.7031 35.2473 15.4887V13.8062C34.8598 13.7072 34.464 13.633 34.0596 13.5835C33.6553 13.534 33.2426 13.5093 32.8214 13.5093C32.1139 13.5093 31.5664 13.6247 31.1789 13.8557C30.7914 14.0701 30.5977 14.3835 30.5977 14.7959Z" fill="white"/>
<path d="M47.9399 18.8783C46.6765 18.8783 45.5225 18.5814 44.478 17.9876C43.4504 17.3773 42.6333 16.5691 42.0269 15.5629C41.4204 14.5402 41.1172 13.4021 41.1172 12.1485C41.1172 10.8948 41.4204 9.76495 42.0269 8.75876C42.6502 7.73608 43.4841 6.92784 44.5285 6.33402C45.5899 5.74021 46.7691 5.4433 48.0663 5.4433C48.6896 5.4433 49.2876 5.51753 49.8604 5.66598C50.4332 5.81443 50.9723 6.02887 51.4777 6.30928V1.38557L55.5714 0.76701V18.7052H51.5282V17.7402C50.4669 18.499 49.2708 18.8783 47.9399 18.8783ZM48.6475 15.4639C49.2203 15.4639 49.7425 15.3814 50.2142 15.2165C50.6859 15.0351 51.1071 14.7711 51.4777 14.4247V9.84742C51.1239 9.51753 50.7027 9.2701 50.2142 9.10516C49.7257 8.92371 49.2034 8.83299 48.6475 8.83299C47.9905 8.83299 47.3924 8.98144 46.8533 9.27835C46.3311 9.55876 45.9099 9.95464 45.5899 10.466C45.2866 10.9608 45.135 11.5216 45.135 12.1485C45.135 12.7753 45.2866 13.3443 45.5899 13.8557C45.9099 14.3505 46.3311 14.7464 46.8533 15.0433C47.3924 15.3237 47.9905 15.4639 48.6475 15.4639Z" fill="white"/>
<path d="M64.7805 18.9526C63.416 18.9526 62.1778 18.6557 61.0659 18.0619C59.9709 17.4515 59.1033 16.6351 58.4631 15.6124C57.823 14.5897 57.5029 13.4433 57.5029 12.1732C57.5029 10.9031 57.8061 9.7567 58.4126 8.73402C59.0359 7.71134 59.8782 6.90309 60.9396 6.30928C62.0009 5.69897 63.1801 5.39381 64.4773 5.39381C65.7913 5.39381 66.9537 5.70722 67.9645 6.33402C68.9753 6.94433 69.7671 7.78557 70.3398 8.85773C70.9295 9.9299 71.2243 11.1588 71.2243 12.5443V13.534H61.6976C61.883 13.9464 62.1272 14.3093 62.4305 14.6227C62.7505 14.9361 63.1296 15.1835 63.5676 15.3649C64.0056 15.5299 64.4773 15.6124 64.9827 15.6124C65.5386 15.6124 66.044 15.5299 66.4989 15.3649C66.9537 15.1835 67.3412 14.9361 67.6613 14.6227L70.3651 16.9732C69.5228 17.666 68.6552 18.1691 67.7623 18.4825C66.8863 18.7959 65.8924 18.9526 64.7805 18.9526ZM61.6218 10.7381H67.2064C67.0716 10.3093 66.8611 9.94639 66.5747 9.64948C66.3051 9.33608 65.9851 9.09691 65.6144 8.93196C65.2438 8.75052 64.8395 8.65979 64.4015 8.65979C63.9466 8.65979 63.5339 8.74227 63.1633 8.90722C62.7927 9.07216 62.4726 9.31134 62.203 9.62474C61.9503 9.92165 61.7566 10.2928 61.6218 10.7381Z" fill="white"/>
<path d="M79.8596 18.9526C78.4276 18.9526 77.0125 18.6969 75.6143 18.1856C74.216 17.6742 72.9694 16.9649 71.8744 16.0577L74.3002 12.9649C75.3784 13.8227 76.3724 14.4412 77.2821 14.8206C78.1918 15.1835 79.1604 15.3649 80.1881 15.3649C80.8619 15.3649 81.4347 15.299 81.9064 15.167C82.3781 15.035 82.7403 14.8454 82.993 14.5979C83.2457 14.334 83.372 14.0289 83.372 13.6825C83.372 13.2041 83.1867 12.833 82.8161 12.5691C82.4455 12.3052 81.8137 12.099 80.9209 11.9505L77.0294 11.2825C75.5974 11.0351 74.494 10.499 73.7191 9.67423C72.9441 8.84948 72.5566 7.80206 72.5566 6.53196C72.5566 5.41031 72.843 4.44536 73.4158 3.63711C74.0054 2.82887 74.8393 2.21031 75.9175 1.78144C77.0125 1.35258 78.3097 1.13814 79.809 1.13814C81.123 1.13814 82.4455 1.36082 83.7763 1.80619C85.1072 2.23505 86.2612 2.83711 87.2383 3.61237L84.9387 6.75464C83.1193 5.38557 81.3083 4.70103 79.5058 4.70103C78.9162 4.70103 78.4023 4.76701 77.9643 4.89897C77.5432 5.01443 77.2147 5.18763 76.9788 5.41856C76.7598 5.63299 76.6503 5.89691 76.6503 6.21031C76.6503 6.63918 76.8104 6.96907 77.1304 7.2C77.4674 7.43093 78.0065 7.61237 78.7477 7.74433L82.4118 8.33814C84.1133 8.60206 85.402 9.15464 86.278 9.99588C87.1709 10.8371 87.6173 11.9258 87.6173 13.2619C87.6173 14.433 87.3057 15.4474 86.6823 16.3052C86.059 17.1464 85.1662 17.7979 84.0038 18.2598C82.8414 18.7216 81.46 18.9526 79.8596 18.9526Z" fill="white"/>
<path d="M89.4002 18.7052V1.38557L93.4939 0.519588V6.50722C94.5047 5.74845 95.7008 5.36907 97.0822 5.36907C98.1266 5.36907 99.0448 5.59175 99.8365 6.03711C100.645 6.48247 101.277 7.10103 101.732 7.89278C102.187 8.68454 102.414 9.6 102.414 10.6392V18.7052H98.3204V11.1835C98.3204 10.4577 98.1014 9.88041 97.6634 9.45155C97.2253 9.02268 96.6357 8.80825 95.8945 8.80825C95.3722 8.80825 94.909 8.89897 94.5047 9.08041C94.1172 9.26186 93.7803 9.51753 93.4939 9.84742V18.7052H89.4002Z" fill="white"/>
<path d="M109.119 18.9278C108.175 18.9278 107.333 18.7546 106.592 18.4082C105.867 18.0619 105.295 17.5835 104.873 16.9732C104.469 16.3629 104.267 15.6619 104.267 14.8701C104.267 13.6165 104.747 12.6515 105.707 11.9753C106.684 11.2825 108.041 10.9361 109.776 10.9361C110.82 10.9361 111.831 11.0598 112.808 11.3072V10.6639C112.808 10.0041 112.589 9.51753 112.151 9.20412C111.73 8.87423 111.098 8.70928 110.256 8.70928C109.734 8.70928 109.144 8.79175 108.487 8.9567C107.847 9.12165 107.089 9.38557 106.213 9.74845L104.747 6.80412C105.842 6.32577 106.895 5.97113 107.906 5.74021C108.933 5.49278 109.961 5.36907 110.989 5.36907C112.842 5.36907 114.282 5.80619 115.31 6.68041C116.337 7.53814 116.851 8.75052 116.851 10.3175V18.7052H112.808V17.9134C112.269 18.2763 111.696 18.5402 111.09 18.7052C110.5 18.8536 109.843 18.9278 109.119 18.9278ZM108.159 14.7959C108.159 15.2082 108.344 15.5299 108.714 15.7608C109.085 15.9918 109.599 16.1072 110.256 16.1072C110.744 16.1072 111.199 16.0577 111.62 15.9588C112.058 15.8598 112.454 15.7031 112.808 15.4887V13.8062C112.421 13.7072 112.025 13.633 111.62 13.5835C111.216 13.534 110.803 13.5093 110.382 13.5093C109.675 13.5093 109.127 13.6247 108.74 13.8557C108.352 14.0701 108.159 14.3835 108.159 14.7959Z" fill="white"/>
<path d="M119.284 18.7052V5.61649H123.378V6.92783C123.816 6.4 124.33 6.00412 124.92 5.74021C125.509 5.45979 126.166 5.31959 126.891 5.31959C127.615 5.33608 128.129 5.4433 128.432 5.64124V9.1299C128.162 8.99794 127.859 8.89897 127.522 8.83299C127.185 8.76701 126.84 8.73402 126.486 8.73402C125.846 8.73402 125.248 8.88247 124.692 9.17938C124.153 9.45979 123.715 9.86392 123.378 10.3918V18.7052H119.284Z" fill="white"/>
<path d="M130.192 18.7052V5.61649H134.285V18.7052H130.192ZM132.239 4.40412C131.615 4.40412 131.085 4.18969 130.647 3.76082C130.209 3.33196 129.99 2.81237 129.99 2.20206C129.99 1.59175 130.209 1.07216 130.647 0.643299C131.085 0.214433 131.615 0 132.239 0C132.862 0 133.393 0.214433 133.831 0.643299C134.269 1.07216 134.488 1.59175 134.488 2.20206C134.488 2.81237 134.269 3.33196 133.831 3.76082C133.393 4.18969 132.862 4.40412 132.239 4.40412Z" fill="white"/>
<path d="M136.805 18.7052V5.61649H140.899V6.50722C141.91 5.74845 143.106 5.36907 144.487 5.36907C145.532 5.36907 146.45 5.59175 147.242 6.03711C148.05 6.48247 148.682 7.10103 149.137 7.89278C149.592 8.68454 149.819 9.6 149.819 10.6392V18.7052H145.725V11.1835C145.725 10.4577 145.506 9.88041 145.068 9.45155C144.63 9.02268 144.041 8.80825 143.3 8.80825C142.777 8.80825 142.314 8.89897 141.91 9.08041C141.522 9.26186 141.185 9.51753 140.899 9.84742V18.7052H136.805Z" fill="white"/>
<path d="M159.076 24C157.998 24 156.97 23.901 155.993 23.7031C155.033 23.5052 154.157 23.2247 153.365 22.8619L154.73 19.7443C155.454 20.0742 156.17 20.3216 156.878 20.4866C157.585 20.6515 158.293 20.734 159 20.734C159.961 20.734 160.685 20.5443 161.174 20.1649C161.662 19.7856 161.906 19.2165 161.906 18.4577V17.7155C160.862 18.4082 159.708 18.7546 158.444 18.7546C157.181 18.7546 156.035 18.4577 155.008 17.8639C153.98 17.2701 153.163 16.4701 152.557 15.4639C151.95 14.4412 151.647 13.3113 151.647 12.0742C151.647 10.8371 151.95 9.71546 152.557 8.70928C153.18 7.70309 154.014 6.91134 155.058 6.33402C156.12 5.74021 157.299 5.4433 158.596 5.4433C159.202 5.4433 159.792 5.51753 160.365 5.66598C160.938 5.81443 161.468 6.02887 161.957 6.30928V5.61649H166V18.5072C166 20.2722 165.402 21.6247 164.206 22.5649C163.027 23.5216 161.317 24 159.076 24ZM159.152 15.3897C159.708 15.3897 160.213 15.3072 160.668 15.1423C161.14 14.9773 161.553 14.7381 161.906 14.4247V9.79794C161.553 9.50103 161.14 9.2701 160.668 9.10516C160.213 8.92371 159.716 8.83299 159.177 8.83299C158.52 8.83299 157.922 8.98144 157.383 9.27835C156.861 9.55876 156.44 9.94639 156.12 10.4412C155.816 10.9196 155.665 11.4639 155.665 12.0742C155.665 12.701 155.816 13.2701 156.12 13.7814C156.423 14.2763 156.836 14.6722 157.358 14.9691C157.897 15.2495 158.495 15.3897 159.152 15.3897Z" fill="white"/>
</svg>
