<svg width="132" height="132" viewBox="0 0 132 132" fill="none" xmlns="http://www.w3.org/2000/svg">
<circle cx="66" cy="66" r="66" fill="black"/>
<path fill-rule="evenodd" clip-rule="evenodd" d="M72.1284 57.4499V55.8666C72.1284 54.1177 70.7336 52.7 69.0131 52.7H62.7825C61.062 52.7 59.6672 54.1177 59.6672 55.8666V57.4499" stroke="#5BC0EB" stroke-width="2" stroke-linecap="round" stroke-linejoin="round"/>
<path fill-rule="evenodd" clip-rule="evenodd" d="M65.8978 49.5333C67.6183 49.5333 69.0131 48.1155 69.0131 46.3666C69.0131 44.6177 67.6183 43.2 65.8978 43.2C64.1772 43.2 62.7825 44.6177 62.7825 46.3666C62.7825 48.1155 64.1772 49.5333 65.8978 49.5333Z" stroke="#5BC0EB" stroke-width="2" stroke-linecap="round" stroke-linejoin="round"/>
<path fill-rule="evenodd" clip-rule="evenodd" d="M57.216 88.7993V87.216C57.216 85.4671 55.8212 84.0493 54.1007 84.0493H47.8702C46.1496 84.0493 44.7549 85.4671 44.7549 87.216V88.7993" stroke="#5BC0EB" stroke-width="2" stroke-linecap="round" stroke-linejoin="round"/>
<path fill-rule="evenodd" clip-rule="evenodd" d="M50.9854 80.8828C52.7059 80.8828 54.1007 79.4651 54.1007 77.7162C54.1007 75.9673 52.7059 74.5496 50.9854 74.5496C49.2649 74.5496 47.8701 75.9673 47.8701 77.7162C47.8701 79.4651 49.2649 80.8828 50.9854 80.8828Z" stroke="#5BC0EB" stroke-width="2" stroke-linecap="round" stroke-linejoin="round"/>
<path fill-rule="evenodd" clip-rule="evenodd" d="M88.3339 88.7995V87.2162C88.3339 85.4673 86.9392 84.0496 85.2186 84.0496H78.9881C77.2676 84.0496 75.8728 85.4673 75.8728 87.2162V88.7995" stroke="#5BC0EB" stroke-width="2" stroke-linecap="round" stroke-linejoin="round"/>
<path fill-rule="evenodd" clip-rule="evenodd" d="M82.1033 80.8828C83.8238 80.8828 85.2186 79.4651 85.2186 77.7162C85.2186 75.9673 83.8238 74.5496 82.1033 74.5496C80.3828 74.5496 78.988 75.9673 78.988 77.7162C78.988 79.4651 80.3828 80.8828 82.1033 80.8828Z" stroke="#5BC0EB" stroke-width="2" stroke-linecap="round" stroke-linejoin="round"/>
<path d="M65.9375 64V70.0562M65.9375 70.0562L60 74.6875M65.9375 70.0562L71.8749 74.6875" stroke="#5BC0EB" stroke-width="2" stroke-linecap="round" stroke-dasharray="3 3"/>
</svg>
