<svg width="132" height="132" viewBox="0 0 132 132" fill="none" xmlns="http://www.w3.org/2000/svg">
<circle cx="66" cy="66" r="66" fill="black"/>
<path fill-rule="evenodd" clip-rule="evenodd" d="M64.8001 82.8001C74.7412 82.8001 82.8001 74.7412 82.8001 64.8001C82.8001 54.8589 74.7412 46.8 64.8001 46.8C54.8589 46.8 46.8 54.8589 46.8 64.8001C46.8 74.7412 54.8589 82.8001 64.8001 82.8001Z" stroke="#5BC0EB" stroke-width="2" stroke-linecap="round" stroke-linejoin="round"/>
<path d="M85.2001 85.2003L78 78" stroke="#5BC0EB" stroke-width="2" stroke-linecap="round" stroke-linejoin="round"/>
<path fill-rule="evenodd" clip-rule="evenodd" d="M55.2 64.8C55.2 64.8 58.6909 58.8 64.8 58.8C70.909 58.8 74.4 64.8 74.4 64.8C74.4 64.8 70.909 70.8001 64.8 70.8001C58.6909 70.8001 55.2 64.8 55.2 64.8Z" stroke="#5BC0EB" stroke-width="2" stroke-linecap="round" stroke-linejoin="round"/>
<path fill-rule="evenodd" clip-rule="evenodd" d="M64.8 67.8001C66.4569 67.8001 67.8001 66.4569 67.8001 64.8C67.8001 63.1432 66.4569 61.8 64.8 61.8C63.1432 61.8 61.8 63.1432 61.8 64.8C61.8 66.4569 63.1432 67.8001 64.8 67.8001Z" stroke="#5BC0EB" stroke-width="2" stroke-linecap="round" stroke-linejoin="round"/>
</svg>
